<?xml version="1.0" ?><!DOCTYPE svg  PUBLIC '-//W3C//DTD SVG 1.1//EN'  'http://www.w3.org/Graphics/SVG/1.1/DTD/svg11.dtd'><svg enable-background="new 0 0 128 128" id="Слой_1" version="1.1" viewBox="0 0 128 128" xml:space="preserve" xmlns="http://www.w3.org/2000/svg" xmlns:xlink="http://www.w3.org/1999/xlink"><g><g><circle cx="64" cy="64" fill="#BFE6F4" r="50"/></g><g><path d="M64,115.2c-28.3,0-51.2-23-51.2-51.2s23-51.2,51.2-51.2s51.2,23,51.2,51.2S92.3,115.2,64,115.2z M64,15.2    c-26.9,0-48.8,21.9-48.8,48.8s21.9,48.8,48.8,48.8s48.8-21.9,48.8-48.8S90.9,15.2,64,15.2z" fill="#62345B"/></g><g><path d="M101,98.4c-0.2,0-0.4,0-0.6-0.2c-9.3-5.1-22.6-8-36.4-8c-13.8,0-27,2.9-36.3,8c-0.6,0.3-1.4,0.1-1.7-0.5    c-0.3-0.6-0.1-1.4,0.5-1.7c9.6-5.3,23.3-8.3,37.5-8.3c14.3,0,28,3,37.6,8.4c0.6,0.3,0.8,1.1,0.5,1.7    C101.9,98.2,101.5,98.4,101,98.4z" fill="#62345B"/></g><g><path d="M64,40.2c-14.4,0-28.2-3.1-37.8-8.5c-0.6-0.3-0.8-1.1-0.5-1.7s1.1-0.8,1.7-0.5c9.3,5.2,22.6,8.2,36.6,8.2    c13.9,0,27.2-3,36.5-8.1c0.6-0.3,1.4-0.1,1.7,0.5c0.3,0.6,0.1,1.4-0.5,1.7C92.1,37.2,78.3,40.2,64,40.2z" fill="#62345B"/></g><g><path d="M64,115.2c-14.5,0-26.2-23-26.2-51.2S49.5,12.8,64,12.8s26.2,23,26.2,51.2S78.5,115.2,64,115.2z M64,15.2    c-13.1,0-23.8,21.9-23.8,48.8s10.7,48.8,23.8,48.8S87.8,90.9,87.8,64S77.1,15.2,64,15.2z" fill="#62345B"/></g><g><path d="M114,65.2H14c-0.7,0-1.2-0.6-1.2-1.2s0.6-1.2,1.2-1.2h100c0.7,0,1.2,0.6,1.2,1.2S114.7,65.2,114,65.2z" fill="#62345B"/></g><g><path d="M64,115.2c-0.7,0-1.2-0.6-1.2-1.2V14c0-0.7,0.6-1.2,1.2-1.2s1.2,0.6,1.2,1.2v100    C65.2,114.7,64.7,115.2,64,115.2z" fill="#62345B"/></g><g><path d="M110.9,122.5l-18.8-18.8l11.6-11.6l18.8,18.8c2.4,2.4,2.4,6.3,0,8.8l-2.9,2.9    C117.3,125,113.3,125,110.9,122.5z" fill="#ED9E77"/></g><g><polyline fill="#ECEBEC" points="92.1,103.7 99.8,111.4 111.4,99.8 103.7,92.1   "/></g><g><path d="M99.8,112.7c-0.3,0-0.6-0.1-0.9-0.4c-0.5-0.5-0.5-1.3,0-1.8l11.6-11.6c0.5-0.5,1.3-0.5,1.8,0    c0.5,0.5,0.5,1.3,0,1.8l-11.6,11.6C100.5,112.6,100.1,112.7,99.8,112.7z" fill="#62345B"/></g><g><path d="M115.3,125.6c-2,0-3.9-0.8-5.3-2.2l-18.8-18.8c-0.5-0.5-0.5-1.3,0-1.8l11.6-11.6c0.5-0.5,1.3-0.5,1.8,0    l18.8,18.8c1.4,1.4,2.2,3.3,2.2,5.3c0,2-0.8,3.9-2.2,5.3l-2.9,2.9C119.2,124.8,117.3,125.6,115.3,125.6z M93.8,103.7l18,18    c0.9,0.9,2.2,1.4,3.5,1.4c1.3,0,2.6-0.5,3.5-1.4l2.9-2.9c0.9-0.9,1.4-2.2,1.4-3.5c0-1.3-0.5-2.6-1.4-3.5l-18-18L93.8,103.7z" fill="#62345B"/></g><g opacity="0.1"><path d="M121.1,109.5l-13.6-13.6v0l-3.9-3.9l-3.3,3.3l0,0l-8.3,8.3l3.9,3.9c2.3-1.4,4.5-3.2,6.5-5.1    c0.9-0.9,1.6-1.7,2.4-2.7l9.7,9.7c3.2,3.2,3.2,8.4,0,11.6v0c-0.7,0.7-1.6,1.3-2.5,1.7c3,1.3,6.6,0.7,9.1-1.7v0    C124.3,117.9,124.3,112.7,121.1,109.5z" fill="#62345B"/></g><g><path d="M100.1,53.6c-12.8-12.8-33.6-12.8-46.5,0c-12.8,12.8-12.8,33.6,0,46.5c12.8,12.8,33.6,12.8,46.5,0    C112.9,87.3,112.9,66.5,100.1,53.6z M96.2,96.2c-10.7,10.7-28,10.7-38.7,0c-10.7-10.7-10.7-28,0-38.7c10.7-10.7,28-10.7,38.7,0    C106.9,68.2,106.9,85.5,96.2,96.2z" fill="#ECEBEC"/></g><g><path d="M76.9,111c-9.1,0-17.7-3.5-24.1-10s-10-15-10-24.1s3.5-17.7,10-24.1s15-10,24.1-10c9.1,0,17.7,3.5,24.1,10    s10,15,10,24.1s-3.5,17.7-10,24.1S86,111,76.9,111z M76.9,45.2c-8.4,0-16.4,3.3-22.3,9.3c-6,6-9.3,13.9-9.3,22.3    s3.3,16.4,9.3,22.3c6,6,13.9,9.3,22.3,9.3c8.4,0,16.4-3.3,22.3-9.3c6-6,9.3-13.9,9.3-22.3s-3.3-16.4-9.3-22.3    C93.2,48.5,85.3,45.2,76.9,45.2z" fill="#62345B"/></g><g opacity="0.5"><circle cx="76.9" cy="76.9" fill="#E9E8E7" r="27.4"/></g><g><line fill="#AB7866" x1="50" x2="61.6" y1="92.1" y2="103.7"/></g><g opacity="0.7"><circle cx="69.2" cy="69.2" fill="#FEFEFC" r="3.8"/></g><g opacity="0.5"><path d="M57.5,96.2c6.3-19.5,19.2-32.4,38.7-38.7c-10.7-10.7-28-10.7-38.7,0S46.8,85.5,57.5,96.2z" fill="#FEFEFC"/></g><g><path d="M76.9,105.5c-7.6,0-14.8-3-20.2-8.4s-8.4-12.6-8.4-20.2s3-14.8,8.4-20.2s12.6-8.4,20.2-8.4    c7.6,0,14.8,3,20.2,8.4c11.2,11.2,11.2,29.3,0,40.5C91.7,102.5,84.5,105.5,76.9,105.5z M76.9,50.7c-7,0-13.5,2.7-18.5,7.7    c-4.9,4.9-7.7,11.5-7.7,18.5s2.7,13.5,7.7,18.5c4.9,4.9,11.5,7.7,18.5,7.7c7,0,13.5-2.7,18.5-7.7c10.2-10.2,10.2-26.8,0-37    C90.4,53.4,83.8,50.7,76.9,50.7z" fill="#62345B"/></g></g></svg>